[Header]
FileType HTR
DataType HTRS
FileVersion 1
NumSegments 64
NumFrames 4
DataFrameRate 30
EulerRotationOrder ZYX
CalibrationUnits mm
RotationUnits Degrees
GlobalAxisofGravity Y
BoneLengthAxis Y
ScaleFactor 1.0
[SegmentNames&Hierarchy]
Hips	GLOBAL
Spine	Hips
Spine1	Spine
Spine2	Spine1
Neck	Spine2
Head	Neck
LeftEye	Head
RightEye	Head
LeftShoulder	Spine2
LeftArm	LeftShoulder
LeftForeArm	LeftArm
LeftHand	LeftForeArm
LeftHandThumb1	LeftHand
LeftHandThumb2	LeftHandThumb1
LeftHandThumb3	LeftHandThumb2
LeftHandThumb4	LeftHandThumb3
LeftHandIndex1	LeftHand
LeftHandIndex2	LeftHandIndex1
LeftHandIndex3	LeftHandIndex2
LeftHandIndex4	LeftHandIndex3
LeftHandMiddle1	LeftHand
LeftHandMiddle2	LeftHandMiddle1
LeftHandMiddle3	LeftHandMiddle2
LeftHandMiddle4	LeftHandMiddle3
LeftHandRing1	LeftHand
LeftHandRing2	LeftHandRing1
LeftHandRing3	LeftHandRing2
LeftHandRing4	LeftHandRing3
LeftHandPinky1	LeftHand
LeftHandPinky2	LeftHandPinky1
LeftHandPinky3	LeftHandPinky2
LeftHandPinky4	LeftHandPinky3
RightShoulder	Spine2
RightArm	RightShoulder
RightForeArm	RightArm
RightHand	RightForeArm
RightHandPinky1	RightHand
RightHandPinky2	RightHandPinky1
RightHandPinky3	RightHandPinky2
RightHandPinky4	RightHandPinky3
RightHandRing1	RightHand
RightHandRing2	RightHandRing1
RightHandRing3	RightHandRing2
RightHandRing4	RightHandRing3
RightHandMiddle1	RightHand
RightHandMiddle2	RightHandMiddle1
RightHandMiddle3	RightHandMiddle2
RightHandMiddle4	RightHandMiddle3
RightHandIndex1	RightHand
RightHandIndex2	RightHandIndex1
RightHandIndex3	RightHandIndex2
RightHandIndex4	RightHandIndex3
RightHandThumb1	RightHand
RightHandThumb2	RightHandThumb1
RightHandThumb3	RightHandThumb2
RightHandThumb4	RightHandThumb3
LeftUpLeg	Hips
LeftLeg	LeftUpLeg
LeftFoot	LeftLeg
LeftToeBase	LeftFoot
RightUpLeg	Hips
RightLeg	RightUpLeg
RightFoot	RightLeg
RightToeBase	RightFoot
[BasePosition]
Hips	0	0	0	0	0	0	1
Spine	0	0	0	0	0	0	1
Spine1	0	0	0	0	0	0	1
Spine2	0	0	0	0	0	0	1
Neck	0	0	0	0	0	0	1
Head	0	0	0	0	0	0	1
LeftEye	0	0	0	0	0	0	1
RightEye	0	0	0	0	0	0	1
LeftShoulder	0	0	0	0	0	0	1
LeftArm	0	0	0	0	0	0	1
LeftForeArm	0	0	0	0	0	0	1
LeftHand	0	0	0	0	0	0	1
LeftHandThumb1	0	0	0	0	0	0	1
LeftHandThumb2	0	0	0	0	0	0	1
LeftHandThumb3	0	0	0	0	0	0	1
LeftHandThumb4	0	0	0	0	0	0	1
LeftHandIndex1	0	0	0	0	0	0	1
LeftHandIndex2	0	0	0	0	0	0	1
LeftHandIndex3	0	0	0	0	0	0	1
LeftHandIndex4	0	0	0	0	0	0	1
LeftHandMiddle1	0	0	0	0	0	0	1
LeftHandMiddle2	0	0	0	0	0	0	1
LeftHandMiddle3	0	0	0	0	0	0	1
LeftHandMiddle4	0	0	0	0	0	0	1
LeftHandRing1	0	0	0	0	0	0	1
LeftHandRing2	0	0	0	0	0	0	1
LeftHandRing3	0	0	0	0	0	0	1
LeftHandRing4	0	0	0	0	0	0	1
LeftHandPinky1	0	0	0	0	0	0	1
LeftHandPinky2	0	0	0	0	0	0	1
LeftHandPinky3	0	0	0	0	0	0	1
LeftHandPinky4	0	0	0	0	0	0	1
RightShoulder	0	0	0	0	0	0	1
RightArm	0	0	0	0	0	0	1
RightForeArm	0	0	0	0	0	0	1
RightHand	0	0	0	0	0	0	1
RightHandPinky1	0	0	0	0	0	0	1
RightHandPinky2	0	0	0	0	0	0	1
RightHandPinky3	0	0	0	0	0	0	1
RightHandPinky4	0	0	0	0	0	0	1
RightHandRing1	0	0	0	0	0	0	1
RightHandRing2	0	0	0	0	0	0	1
RightHandRing3	0	0	0	0	0	0	1
RightHandRing4	0	0	0	0	0	0	1
RightHandMiddle1	0	0	0	0	0	0	1
RightHandMiddle2	0	0	0	0	0	0	1
RightHandMiddle3	0	0	0	0	0	0	1
RightHandMiddle4	0	0	0	0	0	0	1
RightHandIndex1	0	0	0	0	0	0	1
RightHandIndex2	0	0	0	0	0	0	1
RightHandIndex3	0	0	0	0	0	0	1
RightHandIndex4	0	0	0	0	0	0	1
RightHandThumb1	0	0	0	0	0	0	1
RightHandThumb2	0	0	0	0	0	0	1
RightHandThumb3	0	0	0	0	0	0	1
RightHandThumb4	0	0	0	0	0	0	1
LeftUpLeg	0	0	0	0	0	0	1
LeftLeg	0	0	0	0	0	0	1
LeftFoot	0	0	0	0	0	0	1
LeftToeBase	0	0	0	0	0	0	1
RightUpLeg	0	0	0	0	0	0	1
RightLeg	0	0	0	0	0	0	1
RightFoot	0	0	0	0	0	0	1
RightToeBase	0	0	0	0	0	0	1
[Hips]
17	93.09020996	754.0197754	-77.81134033	35.10646057	-20.49029732	-8.546174049	1.0
18	96.78765106	755.4351807	-71.36772919	33.07365036	-21.4707489	-7.686200619	1.0
19	100.0312881	772.3285522	-61.62876892	29.24373055	-23.73143578	-6.025319576	1.0
20	101.8548126	802.3554077	-48.72083282	23.86009407	-26.68429565	-3.227543116	1.0
[Spine]
17	0	101.8159943	1.315000057	10.68495178	-4.286497593	2.22283864	1.0
18	0	101.8159943	1.315000057	10.3854332	-4.226474285	2.674758434	1.0
19	0	101.8159943	1.315000057	9.796697617	-3.787192583	2.96100378	1.0
20	0	101.8159943	1.315000057	8.952939987	-2.65000391	2.809665203	1.0
[Spine1]
17	0	100.8349991	-10.00800037	4.123404026	-0.5285110474	0.9879510999	1.0
18	0	100.8349991	-10.00800037	3.95127964	-0.7435860634	1.218311429	1.0
19	0	100.8349991	-10.00800037	3.692575693	-0.9730547071	1.528295755	1.0
20	0	100.8349991	-10.00800037	3.403196812	-0.9832687974	1.782878757	1.0
[Spine2]
17	0	91	-13.73399925	4.085781574	-0.5909051299	0.8944234252	1.0
18	0	91	-13.73399925	3.915596724	-0.7985046506	1.14610076	1.0
19	0	91	-13.73399925	3.660689116	-1.006937504	1.488460779	1.0
20	0	91	-13.73399925	3.375198603	-0.9890015721	1.778348088	1.0
[Neck]
17	0	166.7169952	-25.16200066	-11.49969864	3.671775341	6.678986549	1.0
18	0	166.7169952	-25.16200066	-11.41332626	3.882637978	6.755860806	1.0
19	0	166.7169952	-25.16200066	-9.755232811	4.002272606	5.544490337	1.0
20	0	166.7169952	-25.16200066	-6.681776047	3.77813983	3.307524204	1.0
[Head]
17	0	96.17900085	16.84999847	-48.84348297	15.07684517	-8.694945335	1.0
18	0	96.17900085	16.84999847	-47.58263016	15.64668369	-9.471985817	1.0
19	0	96.17900085	16.84999847	-44.29890823	16.2224884	-11.26757145	1.0
20	0	96.17900085	16.84999847	-39.36473083	15.73593712	-13.12539673	1.0
[LeftEye]
17	30.6760006	64.09500122	92.83599854	0	0	0	1.0
18	30.6760006	64.09500122	92.83599854	0	0	0	1.0
19	30.6760006	64.09500122	92.83599854	0	0	0	1.0
20	30.6760006	64.09500122	92.83599854	0	0	0	1.0
[RightEye]
17	-30.6760006	64.09500122	92.83499908	0	0	0	1.0
18	-30.6760006	64.09500122	92.83499908	0	0	0	1.0
19	-30.6760006	64.09500122	92.83499908	0	0	0	1.0
20	-30.6760006	64.09500122	92.83499908	0	0	0	1.0
[LeftShoulder]
17	45.70400238	109.4599991	-26.28000069	5.600094318	-24.30436134	-8.545267105	1.0
18	45.70400238	109.4599991	-26.28000069	5.663393021	-24.09577179	-8.582930565	1.0
19	45.70400238	109.4599991	-26.28000069	5.898146152	-23.21939087	-9.845707893	1.0
20	45.70400238	109.4599991	-26.28000069	6.092401981	-22.15712166	-11.45250034	1.0
[LeftArm]
17	105.923996	-5.24600029	-22.32099915	39.40353394	-55.65545273	-39.30830765	1.0
18	105.923996	-5.24600029	-22.32099915	37.89638519	-53.72939301	-39.59499741	1.0
19	105.923996	-5.24600029	-22.32099915	30.24027824	-46.31843185	-37.70186615	1.0
20	105.923996	-5.24600029	-22.32099915	23.5157299	-34.48610306	-36.9483757	1.0
[LeftForeArm]
17	278.414978	-0.0009999999311	0	3.750637234e-06	-56.8603096	-0.0002309417323	1.0
18	278.414978	-0.0009999999311	0	2.910260832e-07	-55.09726715	-0.0002026346483	1.0
19	278.414978	-0.0009999999311	0	4.24348309e-06	-48.53085327	-0.0001926550613	1.0
20	278.414978	-0.0009999999311	0	7.161340363e-06	-38.87062073	-0.0002087085159	1.0
[LeftHand]
17	283.2879944	0	0	0.3780090213	-10.5889864	-11.87263966	1.0
18	283.2879944	0	0	-0.1522141248	-14.95613194	-9.608859062	1.0
19	283.2879944	0	0	-13.34724236	-19.91019058	-2.363343954	1.0
20	283.2879944	0	0	-33.685215	-23.25552177	4.663207531	1.0
[LeftHandThumb1]
17	24.6609993	-15.75	26.8239994	-0.4893372655	2.200525761	4.818254948	1.0
18	24.6609993	-15.75	26.8239994	-0.4892398417	2.200737	4.81831646	1.0
19	24.6609993	-15.75	26.8239994	-0.4882567227	2.20322752	4.819149494	1.0
20	24.6609993	-15.75	26.8239994	-0.4876514375	2.204795599	4.819683552	1.0
[LeftHandThumb2]
17	32.29800034	-18.64699936	18.64699936	1.512040257	20.10440063	9.566867828	1.0
18	32.29800034	-18.64699936	18.64699936	1.765389204	22.64740753	6.13193655	1.0
19	32.29800034	-18.64699936	18.64699936	1.985108614	24.43343163	5.50897646	1.0
20	32.29800034	-18.64699936	18.64699936	2.364256382	25.02923584	8.529330254	1.0
[LeftHandThumb3]
17	26.52600098	-15.31499958	15.31499958	-11.29877853	17.48986435	15.75078583	1.0
18	26.52600098	-15.31499958	15.31499958	-10.18762398	21.3554039	17.708601	1.0
19	26.52600098	-15.31499958	15.31499958	-9.607585907	22.82834625	17.42926788	1.0
20	26.52600098	-15.31499958	15.31499958	-9.906354904	21.3032589	15.09456348	1.0
[LeftHandThumb4]
17	19.54599953	-11.28499985	11.28499985	0	0	0	1.0
18	19.54599953	-11.28499985	11.28499985	0	0	0	1.0
19	19.54599953	-11.28499985	11.28499985	0	0	0	1.0
20	19.54599953	-11.28499985	11.28499985	0	0	0	1.0
[LeftHandIndex1]
17	91.09299469	-5.170999527	22.60099792	0.9890967011	3.052984953	-16.8643055	1.0
18	91.09299469	-5.170999527	22.60099792	0.7270799279	3.058121443	-19.27339935	1.0
19	91.09299469	-5.170999527	22.60099792	0.3244894743	2.227009296	-19.5545578	1.0
20	91.09299469	-5.170999527	22.60099792	0.1906875819	1.19092679	-16.49787331	1.0
[LeftHandIndex2]
17	36.76399994	0	0	-0.3543943465	2.003591776	-20.05426788	1.0
18	36.76399994	0	0	-0.3839764893	2.08347249	-20.8902607	1.0
19	36.76399994	0	0	-0.3695015311	2.044047356	-20.47826195	1.0
20	36.76399994	0	0	-0.3112630248	1.880674958	-18.77607346	1.0
[LeftHandIndex3]
17	28.83100128	0	0	-0.101962544	1.086531997	-10.71386051	1.0
18	28.83100128	0	0	-0.118205674	1.170154452	-11.54907036	1.0
19	28.83100128	0	0	-0.1103344709	1.128938794	-11.13766479	1.0
20	28.83100128	0	0	-0.0793832168	0.9582916498	-9.437003136	1.0
[LeftHandIndex4]
17	23.92700005	0	0	0	0	0	1.0
18	23.92700005	0	0	0	0	0	1.0
19	23.92700005	0	0	0	0	0	1.0
20	23.92700005	0	0	0	0	0	1.0
[LeftHandMiddle1]
17	95.33399963	0	0	-1.641403794	3.13425231	-26.87424088	1.0
18	95.33399963	0	0	-1.921870828	1.46911037	-30.27705765	1.0
19	95.33399963	0	0	-1.843047142	-0.1063881889	-29.52246475	1.0
20	95.33399963	0	0	-1.304199815	-1.106311202	-22.86620331	1.0
[LeftHandMiddle2]
17	36.98199844	0	0	-0.2940405011	1.830024004	-18.25103188	1.0
18	36.98199844	0	0	-0.314909339	1.892377496	-18.89618492	1.0
19	36.98199844	0	0	-0.310572952	1.879399657	-18.76200676	1.0
20	36.98199844	0	0	-0.2814806402	1.791377306	-17.85240936	1.0
[LeftHandMiddle3]
17	29.50900078	0	0	-0.3272757828	1.927791357	-19.26437759	1.0
18	29.50900078	0	0	-0.3503383696	1.992777824	-19.9410553	1.0
19	29.50900078	0	0	-0.346837908	1.982938647	-19.83846664	1.0
20	29.50900078	0	0	-0.3165770769	1.896769643	-18.94222069	1.0
[LeftHandMiddle4]
17	28.3390007	0	0	0	0	0	1.0
18	28.3390007	0	0	0	0	0	1.0
19	28.3390007	0	0	0	0	0	1.0
20	28.3390007	0	0	0	0	0	1.0
[LeftHandRing1]
17	91.04499817	-0.4390000105	-18.65100098	-1.810738325	1.744529486	-28.96646118	1.0
18	91.04499817	-0.4390000105	-18.65100098	-2.219952583	1.638704062	-33.60669327	1.0
19	91.04499817	-0.4390000105	-18.65100098	-2.218151331	1.544182777	-33.63447571	1.0
20	91.04499817	-0.4390000105	-18.65100098	-1.644600987	1.569420815	-26.84928703	1.0
[LeftHandRing2]
17	31.54000092	0	0	-0.609349966	2.597060442	-26.3984127	1.0
18	31.54000092	0	0	-0.6647291183	2.705946922	-27.59828377	1.0
19	31.54000092	0	0	-0.6672037244	2.711083412	-27.65429115	1.0
20	31.54000092	0	0	-0.6075778008	2.592899561	-26.35411644	1.0
[LeftHandRing3]
17	29.37700081	0	0	-0.4796114862	2.317610502	-23.37290573	1.0
18	29.37700081	0	0	-0.5294011235	2.429811716	-24.57805634	1.0
19	29.37700081	0	0	-0.5316401124	2.435211897	-24.63542938	1.0
20	29.37700081	0	0	-0.4780711532	2.3134408	-23.32932281	1.0
[LeftHandRing4]
17	26.47500038	0	0	0	0	0	1.0
18	26.47500038	0	0	0	0	0	1.0
19	26.47500038	0	0	0	0	0	1.0
20	26.47500038	0	0	0	0	0	1.0
[LeftHandPinky1]
17	80.77799988	-4.887000084	-38.06099701	-3.965008259	-2.078923225	-41.82008362	1.0
18	80.77799988	-4.887000084	-38.06099701	-4.720886707	-2.796494484	-48.16138077	1.0
19	80.77799988	-4.887000084	-38.06099701	-4.664349556	-1.96769619	-48.45699692	1.0
20	80.77799988	-4.887000084	-38.06099701	-3.665398836	0.4866839647	-41.59023666	1.0
[LeftHandPinky2]
17	36	0	0	-0.5653642416	2.506556511	-25.41033936	1.0
18	36	0	0	-0.6222037673	2.623339176	-26.68565941	1.0
19	36	0	0	-0.6101807356	2.59918952	-26.42085075	1.0
20	36	0	0	-0.5206433535	2.408973217	-24.35614395	1.0
[LeftHandPinky3]
17	21.14200211	0	0	-0.5226734877	2.414753914	-24.41625404	1.0
18	21.14200211	0	0	-0.5767599344	2.530950785	-25.67477036	1.0
19	21.14200211	0	0	-0.5657567382	2.507896662	-25.4239502	1.0
20	21.14200211	0	0	-0.4812020957	2.320027351	-23.40068245	1.0
[LeftHandPinky4]
17	19.75699997	0	0	0	0	0	1.0
18	19.75699997	0	0	0	0	0	1.0
19	19.75699997	0	0	0	0	0	1.0
20	19.75699997	0	0	0	0	0	1.0
[RightShoulder]
17	-45.70000076	109.4620056	-26.28000069	6.19720602	17.67702866	22.59851456	1.0
18	-45.70000076	109.4620056	-26.28000069	6.607661724	18.21226501	24.25898361	1.0
19	-45.70000076	109.4620056	-26.28000069	6.68456459	18.51276398	24.24966812	1.0
20	-45.70000076	109.4620056	-26.28000069	6.2168293	18.77377129	21.60621262	1.0
[RightArm]
17	-105.9280014	-5.248000145	-22.32099915	10.37783718	12.57888126	45.25613403	1.0
18	-105.9280014	-5.248000145	-22.32099915	10.22991562	19.80058479	36.9942627	1.0
19	-105.9280014	-5.248000145	-22.32099915	10.32673359	28.18492889	27.93761063	1.0
20	-105.9280014	-5.248000145	-22.32099915	10.14139938	37.50762177	19.94983673	1.0
[RightForeArm]
17	-278.414978	0	0	-3.490186373e-06	14.13207054	-2.05985728e-07	1.0
18	-278.414978	0	0	3.236234761e-06	18.88731384	-3.693307235e-06	1.0
19	-278.414978	0	0	5.873399914e-06	28.27287483	-2.62633705e-07	1.0
20	-278.414978	0	0	1.976074373e-06	38.84023666	8.164972314e-06	1.0
[RightHand]
17	-283.2879944	0	0.0009999999311	-24.81607819	-12.18389606	0.73917377	1.0
18	-283.2879944	0	0.0009999999311	-17.62621689	-10.02651215	6.319838524	1.0
19	-283.2879944	0	0.0009999999311	-10.31953239	-7.718463421	10.48582935	1.0
20	-283.2879944	0	0.0009999999311	-4.688795567	-4.808118343	14.81682777	1.0
[RightHandPinky1]
17	-80.76699829	-4.885000229	-38.06000137	-2.244031429	-4.998598576	35.56216812	1.0
18	-80.76699829	-4.885000229	-38.06000137	-2.299585581	-4.70243597	35.7649231	1.0
19	-80.76699829	-4.885000229	-38.06000137	-2.221993685	-4.219870567	33.97598267	1.0
20	-80.76699829	-4.885000229	-38.06000137	-1.980525732	-3.948364019	30.31443596	1.0
[RightHandPinky2]
17	-36	0	0.0009999999311	-0.3102856278	-1.66812849	21.09295464	1.0
18	-36	0	0.0009999999311	-0.3196357787	-1.69209969	21.41085815	1.0
19	-36	0	0.0009999999311	-0.320851326	-1.695460677	21.45504189	1.0
20	-36	0	0.0009999999311	-0.3034604788	-1.649856091	20.85199356	1.0
[RightHandPinky3]
17	-21.14200211	0	0	-0.2851078212	-1.601269245	20.190588	1.0
18	-21.14200211	0	0	-0.2940064967	-1.625195503	20.50600815	1.0
19	-21.14200211	0	0	-0.2950700819	-1.628291368	20.54642677	1.0
20	-21.14200211	0	0	-0.2783792019	-1.582370758	19.94268799	1.0
[RightHandPinky4]
17	-19.75699997	0	0	0	0	0	1.0
18	-19.75699997	0	0	0	0	0	1.0
19	-19.75699997	0	0	0	0	0	1.0
20	-19.75699997	0	0	0	0	0	1.0
[RightHandRing1]
17	-91.03599548	-0.4390000105	-18.65100098	-1.22668016	0.5172565579	23.30734825	1.0
18	-91.03599548	-0.4390000105	-18.65100098	-1.14184463	-0.6598520875	22.0015831	1.0
19	-91.03599548	-0.4390000105	-18.65100098	-1.037543774	-1.804645419	20.37995338	1.0
20	-91.03599548	-0.4390000105	-18.65100098	-0.9357959032	-2.435400248	18.79339027	1.0
[RightHandRing2]
17	-31.54000092	0	0	-0.477752775	-2.050248861	26.23116493	1.0
18	-31.54000092	0	0	-0.4886880219	-2.072341681	26.53582573	1.0
19	-31.54000092	0	0	-0.4826027751	-2.060103416	26.36687469	1.0
20	-31.54000092	0	0	-0.4546981156	-2.002614975	25.57700729	1.0
[RightHandRing3]
17	-29.37700081	0	0	-0.375223875	-1.827620387	23.20145988	1.0
18	-29.37700081	0	0	-0.3845804334	-1.849367976	23.49404335	1.0
19	-29.37700081	0	0	-0.378872335	-1.836175323	23.31637764	1.0
20	-29.37700081	0	0	-0.3539766371	-1.777083516	22.52388	1.0
[RightHandRing4]
17	-26.47500038	0	0	0	0	0	1.0
18	-26.47500038	0	0	0	0	0	1.0
19	-26.47500038	0	0	0	0	0	1.0
20	-26.47500038	0	0	0	0	0	1.0
[RightHandMiddle1]
17	-95.32500458	0	0	-1.02913332	0.2038415223	20.35367584	1.0
18	-95.32500458	0	0	-0.9703988433	-0.3500726819	19.42402458	1.0
19	-95.32500458	0	0	-0.8772438169	-1.068652749	17.90946198	1.0
20	-95.32500458	0	0	-0.7599598765	-1.710433483	15.98515415	1.0
[RightHandMiddle2]
17	-36.98199844	0	0	-0.6860545278	-2.427014351	31.55568123	1.0
18	-36.98199844	0	0	-0.7066816688	-2.461019278	32.04751205	1.0
19	-36.98199844	0	0	-0.6818397045	-2.420070887	31.45532799	1.0
20	-36.98199844	0	0	-0.6367396712	-2.345402479	30.37663269	1.0
[RightHandMiddle3]
17	-29.50900078	0	0	-0.7312663794	-2.50106287	32.60740662	1.0
18	-29.50900078	0	0	-0.7519093156	-2.533772707	33.08574295	1.0
19	-29.50900078	0	0	-0.7257154584	-2.492304802	32.47921371	1.0
20	-29.50900078	0	0	-0.6788676977	-2.417756796	31.39043236	1.0
[RightHandMiddle4]
17	-28.3390007	0	0.0009999999311	0	0	0	1.0
18	-28.3390007	0	0.0009999999311	0	0	0	1.0
19	-28.3390007	0	0.0009999999311	0	0	0	1.0
20	-28.3390007	0	0.0009999999311	0	0	0	1.0
[RightHandIndex1]
17	-91.08300018	-5.167999744	22.60099792	-1.365442514	4.358237267	25.66787148	1.0
18	-91.08300018	-5.167999744	22.60099792	-1.450723648	2.629674435	26.68584633	1.0
19	-91.08300018	-5.167999744	22.60099792	-1.391881943	1.383134484	25.75393105	1.0
20	-91.08300018	-5.167999744	22.60099792	-1.148398757	1.448362112	22.25356865	1.0
[RightHandIndex2]
17	-36.76399994	0	0	-0.5085206628	-2.111231565	27.07552719	1.0
18	-36.76399994	0	0	-0.5288218856	-2.151197672	27.62963486	1.0
19	-36.76399994	0	0	-0.5109875202	-2.116102934	27.14301682	1.0
20	-36.76399994	0	0	-0.4680699408	-2.030350685	25.9575386	1.0
[RightHandIndex3]
17	-28.83100128	0	0	-0.2265178114	-1.431610107	17.97286606	1.0
18	-28.83100128	0	0	-0.2368115634	-1.463948607	18.39211845	1.0
19	-28.83100128	0	0	-0.2224132121	-1.418821096	17.8069706	1.0
20	-28.83100128	0	0	-0.1937340498	-1.326541305	16.61317444	1.0
[RightHandIndex4]
17	-23.92700005	0	0	0	0	0	1.0
18	-23.92700005	0	0	0	0	0	1.0
19	-23.92700005	0	0	0	0	0	1.0
20	-23.92700005	0	0	0	0	0	1.0
[RightHandThumb1]
17	-24.64799881	-15.72700024	26.82600021	-1.658365726	-0.2894225717	-4.221421719	1.0
18	-24.64799881	-15.72700024	26.82600021	-1.657108545	-0.293048054	-4.22262001	1.0
19	-24.64799881	-15.72700024	26.82600021	-1.657884002	-0.2907547653	-4.221869469	1.0
20	-24.64799881	-15.72700024	26.82600021	-1.661070585	-0.2815088928	-4.218847752	1.0
[RightHandThumb2]
17	-32.29800034	-18.64699936	18.64699936	18.02401352	-8.818545341	-32.78787994	1.0
18	-32.29800034	-18.64699936	18.64699936	17.72901917	-6.848322392	-36.09719467	1.0
19	-32.29800034	-18.64699936	18.64699936	17.66914558	-6.537561893	-36.52485275	1.0
20	-32.29800034	-18.64699936	18.64699936	17.896101	-8.065705299	-33.89827347	1.0
[RightHandThumb3]
17	-26.52600098	-15.31399918	15.31399918	-25.95274925	16.09712029	-33.17190933	1.0
18	-26.52600098	-15.31399918	15.31399918	-27.61060905	19.69430542	-33.86229324	1.0
19	-26.52600098	-15.31399918	15.31399918	-26.20426559	16.96939087	-32.09465408	1.0
20	-26.52600098	-15.31399918	15.31399918	-23.09771729	10.55504894	-29.41407394	1.0
[RightHandThumb4]
17	-19.54599953	-11.28499985	11.28499985	0	0	0	1.0
18	-19.54599953	-11.28499985	11.28499985	0	0	0	1.0
19	-19.54599953	-11.28499985	11.28499985	0	0	0	1.0
20	-19.54599953	-11.28499985	11.28499985	0	0	0	1.0
[LeftUpLeg]
17	82.07800293	-67.51699829	-15.99599934	-95.20314789	25.50211525	-6.219266891	1.0
18	82.07800293	-67.51699829	-15.99599934	-92.33332062	24.80219269	-5.91551733	1.0
19	82.07800293	-67.51699829	-15.99599934	-85.65105438	24.01956177	-5.177596092	1.0
20	82.07800293	-67.51699829	-15.99599934	-76.83947754	23.21010208	-4.587945461	1.0
[LeftLeg]
17	0	-443.7049866	2.845999956	86.02317047	4.139889717	7.664814472	1.0
18	0	-443.7049866	2.845999956	86.33770752	3.879294872	8.837517738	1.0
19	0	-443.7049866	2.845999956	84.60591888	4.016354561	9.554099083	1.0
20	0	-443.7049866	2.845999956	81.36594391	4.603627682	9.411395073	1.0
[LeftFoot]
17	0	-444.2789917	-29.8219986	-25.24953079	0.6501142383	-1.610996008	1.0
18	0	-444.2789917	-29.8219986	-26.43815422	0.8324517012	-2.721870661	1.0
19	0	-444.2789917	-29.8219986	-26.25842285	1.84765625	-3.774101257	1.0
20	0	-444.2789917	-29.8219986	-21.10602188	2.943197489	-3.85539484	1.0
[LeftToeBase]
17	0	-87.28699493	107.1060028	-4.928525448	-3.77441097e-06	-4.178918402e-07	1.0
18	0	-87.28699493	107.1060028	-4.842875957	-2.485105369e-06	-5.698020118e-07	1.0
19	0	-87.28699493	107.1060028	-4.86458683	0.02345608361	0.1487426311	1.0
20	0	-87.28699493	107.1060028	-7.970328808	-0.082088992	-0.5205971003	1.0
[RightUpLeg]
17	-82.07800293	-67.51699829	-15.99599934	-88.12281799	-6.141609669	3.950918436	1.0
18	-82.07800293	-67.51699829	-15.99599934	-86.77507019	-6.639860153	2.807003975	1.0
19	-82.07800293	-67.51699829	-15.99599934	-82.36148834	-6.622401714	0.6554452181	1.0
20	-82.07800293	-67.51699829	-15.99599934	-75.41804504	-6.652648926	-2.399676085	1.0
[RightLeg]
17	0	-443.7049866	2.861999989	81.597229	-5.275701523	5.027661324	1.0
18	0	-443.7049866	2.861999989	82.48488617	-5.025907516	5.126848221	1.0
19	0	-443.7049866	2.861999989	81.08934784	-4.22576046	5.646399975	1.0
20	0	-443.7049866	2.861999989	77.60958099	-2.893805981	7.085844517	1.0
[RightFoot]
17	0	-444.2770081	-29.83799934	-24.2185154	-0.1939992756	0.1871543676	1.0
18	0	-444.2770081	-29.83799934	-23.18615913	-0.3230037093	-0.2847537398	1.0
19	0	-444.2770081	-29.83799934	-21.29554367	-0.4570809007	-0.8950474262	1.0
20	0	-444.2770081	-29.83799934	-18.92932892	-0.5759415627	-1.678417444	1.0
[RightToeBase]
17	0	-87.28699493	107.1060028	-8.731722832	-2.114945801e-06	3.301066158e-07	1.0
18	0	-87.28699493	107.1060028	-10.89920425	-4.210951374e-06	-1.726526989e-06	1.0
19	0	-87.28699493	107.1060028	-13.09394169	-3.118082077e-06	1.175040552e-06	1.0
20	0	-87.28699493	107.1060028	-14.40393066	-4.941435236e-06	6.653771834e-06	1.0
[EndOfFile]
